<?xml version="1.0" encoding="UTF-8" standalone="no"?>
<!-- Created with Inkscape (http://www.inkscape.org/) -->

<svg
   xmlns:dc="http://purl.org/dc/elements/1.1/"
   xmlns:cc="http://creativecommons.org/ns#"
   xmlns:rdf="http://www.w3.org/1999/02/22-rdf-syntax-ns#"
   xmlns:svg="http://www.w3.org/2000/svg"
   xmlns="http://www.w3.org/2000/svg"
   xmlns:sodipodi="http://sodipodi.sourceforge.net/DTD/sodipodi-0.dtd"
   xmlns:inkscape="http://www.inkscape.org/namespaces/inkscape"
   width="200mm"
   height="44.276226mm"
   viewBox="0 0 200 44.276226"
   version="1.1"
   id="svg8"
   inkscape:version="0.92.5 (2060ec1f9f, 2020-04-08)"
   sodipodi:docname="xonox.svg">
  <defs
     id="defs2" />
  <sodipodi:namedview
     id="base"
     pagecolor="#ffffff"
     bordercolor="#666666"
     borderopacity="1.0"
     inkscape:pageopacity="0.0"
     inkscape:pageshadow="2"
     inkscape:zoom="0.98994949"
     inkscape:cx="105.07784"
     inkscape:cy="26.9847"
     inkscape:document-units="mm"
     inkscape:current-layer="g844"
     showgrid="false"
     fit-margin-top="0"
     fit-margin-left="0"
     fit-margin-right="0"
     fit-margin-bottom="0"
     inkscape:window-width="1366"
     inkscape:window-height="707"
     inkscape:window-x="0"
     inkscape:window-y="0"
     inkscape:window-maximized="1" />
  <metadata
     id="metadata5">
    <rdf:RDF>
      <cc:Work
         rdf:about="">
        <dc:format>image/svg+xml</dc:format>
        <dc:type
           rdf:resource="http://purl.org/dc/dcmitype/StillImage" />
        <dc:title />
      </cc:Work>
    </rdf:RDF>
  </metadata>
  <g
     inkscape:label="Ebene 1"
     inkscape:groupmode="layer"
     id="layer1"
     transform="translate(-2.0540185,-5.2635015)">
    <g
       transform="scale(0.26458333)"
       style="font-style:normal;font-weight:normal;font-size:40px;line-height:1.25;font-family:sans-serif;letter-spacing:0px;word-spacing:0px;fill:#000000;fill-opacity:1;stroke:none"
       id="flowRoot815" />
    <g
       aria-label="XONOX"
       style="font-style:normal;font-weight:normal;font-size:63.27823257px;line-height:1.25;font-family:sans-serif;letter-spacing:0px;word-spacing:0px;fill:#000000;fill-opacity:1;stroke:none;stroke-width:1.58195579"
       id="text825">
      <g
         id="g844">
        <path
           id="path828"
           style="font-style:normal;font-variant:normal;font-weight:normal;font-stretch:normal;font-family:'Bauhaus 93';-inkscape-font-specification:'Bauhaus 93, ';stroke-width:1.58195579;fill:#4b4b4b;fill-opacity:1"
           d="m 37.431741,6.314019 -10.968639,20.515989 11.33941,21.6592 H 24.609248 L 19.418455,38.262111 15.031,48.489208 H 2.0540185 L 13.640609,27.169882 2.67197,6.314019 h 13.069674 l 4.912714,9.578248 3.95489,-9.578248 z"
           inkscape:connector-curvature="0" />
        <path
           id="path830"
           style="font-style:normal;font-variant:normal;font-weight:normal;font-stretch:normal;font-family:'Bauhaus 93';-inkscape-font-specification:'Bauhaus 93, ';stroke-width:1.58195579;fill:#4b4b4b;fill-opacity:1"
           d="m 59.894278,5.2635015 q 8.960296,0 15.356094,6.5193885 6.426696,6.519388 6.426696,15.603275 0,9.238375 -6.457593,15.695968 -6.457593,6.457593 -15.695968,6.457593 -9.17658,0 -15.66507,-6.488491 -6.488491,-6.488491 -6.488491,-15.66507 0,-9.269273 6.519388,-15.695968 Q 50.43962,5.2635015 59.894278,5.2635015 Z M 59.523507,17.684326 q -3.862197,0 -6.581183,2.842577 -2.718987,2.842577 -2.718987,6.859262 0,4.016685 2.718987,6.859261 2.749884,2.842577 6.581183,2.842577 3.893094,0 6.581183,-2.811679 2.718987,-2.842577 2.718987,-6.890159 0,-4.047582 -2.718987,-6.859262 -2.688089,-2.842577 -6.581183,-2.842577 z"
           inkscape:connector-curvature="0" />
        <path
           id="path832"
           style="font-style:normal;font-variant:normal;font-weight:normal;font-stretch:normal;font-family:'Bauhaus 93';-inkscape-font-specification:'Bauhaus 93, ';stroke-width:1.58195579;fill:#4b4b4b;fill-opacity:1"
           d="M 86.744271,48.489208 V 21.113957 q 0,-7.199135 4.294763,-11.5247951 4.325661,-4.3256604 11.493896,-4.3256604 7.13734,0 10.90685,4.2020701 3.8004,4.2020704 3.8004,12.0809514 V 48.489208 H 104.69576 V 21.546523 q 0,-3.862197 -2.74988,-3.862197 -2.657193,0 -2.657193,3.862197 v 26.942685 z"
           inkscape:connector-curvature="0" />
        <path
           id="path834"
           style="font-style:normal;font-variant:normal;font-weight:normal;font-stretch:normal;font-family:'Bauhaus 93';-inkscape-font-specification:'Bauhaus 93, ';stroke-width:1.58195579;fill:#4b4b4b;fill-opacity:1"
           d="m 144.92441,5.2635015 q 8.96029,0 15.35609,6.5193885 6.4267,6.519388 6.4267,15.603275 0,9.238375 -6.4576,15.695968 -6.45759,6.457593 -15.69596,6.457593 -9.17658,0 -15.66507,-6.488491 -6.4885,-6.488491 -6.4885,-15.66507 0,-9.269273 6.51939,-15.695968 6.55029,-6.4266955 16.00495,-6.4266955 z m -0.37077,12.4208245 q -3.8622,0 -6.58119,2.842577 -2.71898,2.842577 -2.71898,6.859262 0,4.016685 2.71898,6.859261 2.74989,2.842577 6.58119,2.842577 3.89309,0 6.58118,-2.811679 2.71899,-2.842577 2.71899,-6.890159 0,-4.047582 -2.71899,-6.859262 -2.68809,-2.842577 -6.58118,-2.842577 z"
           inkscape:connector-curvature="0" />
        <path
           id="path836"
           style="font-style:normal;font-variant:normal;font-weight:normal;font-stretch:normal;font-family:'Bauhaus 93';-inkscape-font-specification:'Bauhaus 93, ';stroke-width:1.58195579;fill:#4b4b4b;fill-opacity:1"
           d="m 201.68325,6.314019 -10.96864,20.515989 11.33941,21.6592 h -13.19326 l -5.19079,-10.227097 -4.38746,10.227097 H 166.30553 L 177.89212,27.169882 166.92348,6.314019 h 13.06967 l 4.91272,9.578248 3.95489,-9.578248 z"
           inkscape:connector-curvature="0" />
      </g>
    </g>
  </g>
</svg>
